# Blender 4.0.2
# www.blender.org
mtllib ship.mtl
o ship
v 0.000590 0.128532 -0.360016
v -0.197331 0.391731 0.368534
v 0.000590 0.128532 0.368534
v -0.197331 0.391731 -0.262170
v 0.198511 0.391731 0.368534
v 0.198511 0.391731 -0.262170
v 0.000590 0.391731 -0.606381
v 0.000590 0.391731 0.368534
v -0.197331 0.297315 0.368534
v -0.197331 0.297315 -0.262170
v 0.198511 0.297315 -0.262170
v 0.198511 0.297315 0.368534
v 0.000590 0.297315 0.368534
v 0.000590 0.297315 -0.606381
v -0.042361 0.149630 0.368534
v 0.043541 0.149630 0.368534
v -0.001770 0.212924 -0.483198
v 0.043541 0.149630 -0.347785
v -0.042361 0.149630 -0.347785
v -0.001770 0.212924 0.368534
v -0.139242 0.212924 0.368534
v -0.139242 0.212924 -0.311093
v 0.135702 0.212924 -0.311093
v 0.135702 0.212924 0.368534
vn -1.0000 -0.0000 -0.0000
vn 0.8669 -0.0000 -0.4985
vn 1.0000 -0.0000 -0.0000
vn -0.0000 -0.0000 1.0000
vn -0.0000 1.0000 -0.0000
vn -0.8669 -0.0000 -0.4985
vn 0.7306 -0.4909 -0.4746
vn -0.7451 -0.4589 -0.4840
vn 0.4409 -0.8976 -0.0000
vn 0.5661 -0.8243 -0.0000
vn -0.4409 -0.8976 -0.0000
vn 0.8022 -0.5970 -0.0000
vn -0.5469 -0.8372 -0.0000
vn -0.5702 -0.6654 -0.4819
vn 0.5821 -0.6444 -0.4960
vn -0.8237 -0.5670 -0.0000
vt 0.500000 0.000000
vt 0.625000 0.000000
vt 0.625000 0.250000
vt 0.500000 0.250000
vt 0.500000 0.375000
vt 0.625000 0.375000
vt 0.625000 0.500000
vt 0.500000 0.500000
vt 0.625000 0.750000
vt 0.500000 0.750000
vt 0.500000 0.875000
vt 0.625000 0.875000
vt 0.625000 1.000000
vt 0.500000 1.000000
vt 0.750000 0.500000
vt 0.875000 0.500000
vt 0.875000 0.750000
vt 0.750000 0.750000
vt 0.446701 0.446701
vt 0.445999 0.375000
vt 0.445999 0.320999
vt 0.446701 0.250000
vt 0.450512 0.825512
vt 0.446701 0.750000
vt 0.375000 0.244335
vt 0.375000 0.000000
vt 0.384201 0.000000
vt 0.384201 0.247168
vt 0.446701 0.946701
vt 0.450512 0.875000
vt 0.393402 0.893402
vt 0.401025 0.875000
vt 0.393402 0.500000
vt 0.446701 0.500000
vt 0.393402 0.750000
vt 0.393402 0.000000
vt 0.393402 0.250000
vt 0.446701 0.000000
vt 0.401025 0.776025
vt 0.391997 0.266997
vt 0.393402 0.393402
vt 0.391997 0.375000
s 0
f 9/1/1 2/2/1 4/3/1 10/4/1
f 14/5/2 7/6/2 6/7/2 11/8/2
f 11/8/3 6/7/3 5/9/3 12/10/3
f 13/11/4 8/12/4 2/13/4 9/14/4
f 7/15/5 4/16/5 2/17/5 8/18/5
f 6/7/5 7/15/5 8/18/5 5/9/5
f 12/10/4 5/9/4 8/12/4 13/11/4
f 10/4/6 4/3/6 7/6/6 14/5/6
f 23/19/7 17/20/7 14/5/7 11/8/7
f 17/21/8 22/22/8 10/4/8 14/5/8
f 20/23/4 24/24/4 12/10/4 13/11/4
f 18/25/9 16/26/9 3/27/9 1/28/9
f 21/29/4 20/30/4 13/11/4 9/14/4
f 15/31/4 3/32/4 20/30/4 21/29/4
f 18/33/10 23/34/10 24/24/10 16/35/10
f 1/28/11 3/27/11 15/36/11 19/37/11
f 23/34/12 11/8/12 12/10/12 24/24/12
f 15/36/13 21/38/13 22/22/13 19/37/13
f 3/39/4 16/35/4 24/24/4 20/23/4
f 1/40/14 19/37/14 22/22/14 17/21/14
f 18/41/15 1/42/15 17/20/15 23/19/15
f 21/38/16 9/1/16 10/4/16 22/22/16
o towerA
v 0.000590 0.391731 0.098789
v -0.047852 0.391731 0.108425
v -0.088920 0.391731 0.135865
v -0.116360 0.391731 0.176932
v -0.125996 0.391731 0.225375
v -0.116360 0.391731 0.273817
v -0.088920 0.391731 0.314885
v -0.047852 0.391731 0.342325
v 0.000590 0.391731 0.351961
v 0.049033 0.391731 0.342325
v 0.090100 0.391731 0.314885
v 0.117541 0.391731 0.273817
v 0.127176 0.391731 0.225375
v 0.117541 0.391731 0.176932
v 0.090100 0.391731 0.135865
v 0.049033 0.391731 0.108425
v 0.000590 0.412968 0.119794
v -0.039814 0.412968 0.127831
v -0.074067 0.412968 0.150718
v -0.096954 0.412968 0.184971
v -0.104991 0.412968 0.225375
v -0.096954 0.412968 0.265779
v -0.074067 0.412968 0.300032
v -0.039814 0.412968 0.322919
v 0.000590 0.412968 0.330956
v 0.040994 0.412968 0.322919
v 0.075247 0.412968 0.300032
v 0.098134 0.412968 0.265779
v 0.106171 0.412968 0.225375
v 0.098134 0.412968 0.184971
v 0.075247 0.412968 0.150718
v 0.040994 0.412968 0.127831
v 0.000590 0.412968 0.225375
vn 0.5027 -0.7032 0.5027
vn 0.2721 -0.7032 0.6569
vn -0.5027 -0.7032 -0.5027
vn -0.2721 -0.7032 -0.6569
vn 0.6569 -0.7032 0.2721
vn -0.6569 -0.7032 -0.2721
vn 0.7110 -0.7032 -0.0000
vn -0.7110 -0.7032 -0.0000
vn 0.6569 -0.7032 -0.2721
vn -0.6568 -0.7032 0.2721
vn 0.5027 -0.7032 -0.5027
vn -0.5027 -0.7032 0.5027
vn 0.2721 -0.7032 -0.6569
vn -0.2721 -0.7032 0.6568
vn -0.0000 -0.7032 -0.7110
vn -0.0000 -0.7032 0.7110
vn -0.0000 -1.0000 -0.0000
vt 0.000000 0.000000
s 1
f 27/43/17 26/43/18 42/43/18 43/43/17
f 35/43/19 34/43/20 50/43/20 51/43/19
f 28/43/21 27/43/17 43/43/17 44/43/21
f 36/43/22 35/43/19 51/43/19 52/43/22
f 29/43/23 28/43/21 44/43/21 45/43/23
f 37/43/24 36/43/22 52/43/22 53/43/24
f 30/43/25 29/43/23 45/43/23 46/43/25
f 38/43/26 37/43/24 53/43/24 54/43/26
f 31/43/27 30/43/25 46/43/25 47/43/27
f 39/43/28 38/43/26 54/43/26 55/43/28
f 32/43/29 31/43/27 47/43/27 48/43/29
f 40/43/30 39/43/28 55/43/28 56/43/30
f 33/43/31 32/43/29 48/43/29 49/43/31
f 26/43/18 25/43/32 41/43/32 42/43/18
f 25/43/32 40/43/30 56/43/30 41/43/32
f 34/43/20 33/43/31 49/43/31 50/43/20
f 48/43/33 47/43/33 57/43/33
f 56/43/33 55/43/33 57/43/33
f 49/43/33 48/43/33 57/43/33
f 42/43/33 41/43/33 57/43/33
f 41/43/33 56/43/33 57/43/33
f 50/43/33 49/43/33 57/43/33
f 43/43/33 42/43/33 57/43/33
f 51/43/33 50/43/33 57/43/33
f 44/43/33 43/43/33 57/43/33
f 52/43/33 51/43/33 57/43/33
f 45/43/33 44/43/33 57/43/33
f 53/43/33 52/43/33 57/43/33
f 46/43/33 45/43/33 57/43/33
f 54/43/33 53/43/33 57/43/33
f 47/43/33 46/43/33 57/43/33
f 55/43/33 54/43/33 57/43/33
o Draught.001
v 0.298497 0.266449 0.474713
v 0.298497 0.250000 0.474713
v -0.299946 0.266449 -0.734798
v -0.299946 0.250000 -0.734798
v -0.299946 0.266449 0.474713
v -0.299946 0.250000 0.474713
v 0.298497 0.250000 -0.734798
v 0.298497 0.266449 -0.734798
vn -1.0000 -0.0000 -0.0000
vn -0.0000 1.0000 -0.0000
vn -0.0000 -1.0000 -0.0000
vn -0.0000 -0.0000 1.0000
vn 1.0000 -0.0000 -0.0000
vn -0.0000 -0.0000 -1.0000
vt 0.375000 0.000000
vt 0.625000 0.000000
vt 0.625000 0.250000
vt 0.375000 0.250000
vt 0.625000 0.500000
vt 0.375000 0.500000
vt 0.625000 0.750000
vt 0.375000 0.750000
vt 0.625000 1.000000
vt 0.375000 1.000000
vt 0.125000 0.500000
vt 0.125000 0.750000
vt 0.875000 0.500000
vt 0.875000 0.750000
s 0
f 63/44/34 62/45/34 60/46/34 61/47/34
f 65/47/35 60/46/35 62/48/35 58/49/35
f 61/49/36 64/48/36 59/50/36 63/51/36
f 59/51/37 58/50/37 62/52/37 63/53/37
f 64/54/38 65/49/38 58/51/38 59/55/38
f 61/48/39 60/56/39 65/57/39 64/50/39
o towerB
v -0.070555 0.487322 0.018031
v 0.071735 0.487322 0.018031
v -0.070555 0.487322 -0.124260
v 0.071735 0.487322 -0.124260
v 0.105678 0.391731 -0.158202
v -0.104498 0.391731 -0.158202
v 0.105678 0.391731 0.051973
v -0.104498 0.391731 0.051973
vn -0.0000 0.3346 -0.9424
vn -0.0000 0.3346 0.9424
vn 0.9424 0.3346 -0.0000
vn -0.9424 0.3346 -0.0000
vn -0.0000 1.0000 -0.0000
vt 1.000000 1.000000
vt 0.000000 1.000000
vt 0.000000 0.000000
vt 1.000000 0.000000
s 0
f 70/58/40 71/59/40 68/59/40 69/58/40
f 73/60/41 72/61/41 67/61/41 66/60/41
f 72/61/42 70/58/42 69/58/42 67/61/42
f 71/59/43 73/60/43 66/60/43 68/59/43
f 66/60/44 67/61/44 69/58/44 68/59/44
o towerC
v 0.000590 0.391731 -0.458191
v -0.047852 0.391731 -0.448555
v 0.049033 0.391731 -0.448555
v 0.000590 0.412968 -0.437185
v -0.039814 0.412968 -0.429148
v 0.040994 0.412968 -0.429148
v 0.000590 0.412968 -0.331604
v -0.074067 0.412968 -0.256947
v -0.039814 0.412968 -0.234060
v 0.075247 0.412968 -0.406261
v 0.000590 0.412968 -0.226023
v 0.040994 0.412968 -0.234060
v -0.074067 0.412968 -0.406261
v 0.075247 0.412968 -0.256947
v -0.096954 0.412968 -0.372008
v 0.098134 0.412968 -0.291200
v -0.104991 0.412968 -0.331604
v 0.106171 0.412968 -0.331604
v -0.096954 0.412968 -0.291200
v 0.098134 0.412968 -0.372008
v 0.117541 0.391731 -0.380047
v 0.127176 0.391731 -0.331604
v 0.090100 0.391731 -0.421114
v 0.117541 0.391731 -0.283162
v 0.090100 0.391731 -0.242094
v 0.049033 0.391731 -0.214654
v 0.000590 0.391731 -0.205018
v -0.047852 0.391731 -0.214654
v -0.088920 0.391731 -0.242094
v -0.116360 0.391731 -0.283162
v -0.125996 0.391731 -0.331604
v -0.116360 0.391731 -0.380047
v -0.088920 0.391731 -0.421114
vn 0.2721 -0.7032 0.6569
vn -0.0000 -0.7032 0.7110
vn -0.2721 -0.7032 0.6569
vn -0.0000 -1.0000 -0.0000
vn -0.6568 -0.7032 0.2721
vn -0.7110 -0.7032 -0.0000
vn -0.5027 -0.7032 0.5027
vn -0.6569 -0.7032 -0.2721
vn -0.5027 -0.7032 -0.5027
vn -0.2721 -0.7032 -0.6569
vn -0.0000 -0.7032 -0.7110
vn 0.2721 -0.7032 -0.6569
vn 0.5027 -0.7032 -0.5027
vn 0.6569 -0.7032 -0.2721
vn 0.7110 -0.7032 -0.0000
vn 0.6569 -0.7032 0.2721
vn 0.5027 -0.7032 0.5027
vt 0.000000 0.000000
s 1
f 75/62/45 74/62/46 77/62/46 78/62/45
f 74/62/46 76/62/47 79/62/47 77/62/46
f 78/62/48 77/62/48 80/62/48
f 77/62/48 79/62/48 80/62/48
f 81/62/48 92/62/48 80/62/48
f 82/62/48 81/62/48 80/62/48
f 84/62/48 82/62/48 80/62/48
f 83/62/48 93/62/48 80/62/48
f 79/62/48 83/62/48 80/62/48
f 85/62/48 84/62/48 80/62/48
f 86/62/48 78/62/48 80/62/48
f 87/62/48 85/62/48 80/62/48
f 88/62/48 86/62/48 80/62/48
f 89/62/48 87/62/48 80/62/48
f 90/62/48 88/62/48 80/62/48
f 91/62/48 89/62/48 80/62/48
f 92/62/48 90/62/48 80/62/48
f 93/62/48 91/62/48 80/62/48
f 94/62/49 95/62/50 91/62/50 93/62/49
f 96/62/51 94/62/49 93/62/49 83/62/51
f 76/62/47 96/62/51 83/62/51 79/62/47
f 95/62/50 97/62/52 89/62/52 91/62/50
f 97/62/52 98/62/53 87/62/53 89/62/52
f 98/62/53 99/62/54 85/62/54 87/62/53
f 99/62/54 100/62/55 84/62/55 85/62/54
f 100/62/55 101/62/56 82/62/56 84/62/55
f 101/62/56 102/62/57 81/62/57 82/62/56
f 102/62/57 103/62/58 92/62/58 81/62/57
f 103/62/58 104/62/59 90/62/59 92/62/58
f 104/62/59 105/62/60 88/62/60 90/62/59
f 105/62/60 106/62/61 86/62/61 88/62/60
f 106/62/61 75/62/45 78/62/45 86/62/61
